<svg width="100" height="100" viewBox="0 0 100 100" fill="none" xmlns="http://www.w3.org/2000/svg">
<path d="M75 87.5C81.9036 87.5 87.5 81.9036 87.5 75C87.5 68.0964 81.9036 62.5 75 62.5C68.0964 62.5 62.5 68.0964 62.5 75C62.5 81.9036 68.0964 87.5 75 87.5Z" stroke="white" stroke-width="5" stroke-linecap="round" stroke-linejoin="round"/>
<path d="M25 37.5C31.9036 37.5 37.5 31.9036 37.5 25C37.5 18.0964 31.9036 12.5 25 12.5C18.0964 12.5 12.5 18.0964 12.5 25C12.5 31.9036 18.0964 37.5 25 37.5Z" stroke="white" stroke-width="5" stroke-linecap="round" stroke-linejoin="round"/>
<path d="M54.1666 25H66.6666C68.8768 25 70.9964 25.878 72.5592 27.4408C74.122 29.0036 75 31.1232 75 33.3333V62.5" stroke="white" stroke-width="5" stroke-linecap="round" stroke-linejoin="round"/>
<path d="M25 37.5V87.5" stroke="white" stroke-width="5" stroke-linecap="round" stroke-linejoin="round"/>
</svg>
